<!DOCTYPE svg PUBLIC "-//W3C//DTD SVG 1.1//EN" "http://www.w3.org/Graphics/SVG/1.1/DTD/svg11.dtd">
<!-- Uploaded to: SVG Repo, www.svgrepo.com, Transformed by: SVG Repo Mixer Tools -->
<svg fill="#5BC5A6" height="800px" width="800px" version="1.1" id="Layer_1" xmlns="http://www.w3.org/2000/svg" xmlns:xlink="http://www.w3.org/1999/xlink" viewBox="0 0 502.4 502.4" xml:space="preserve">
<g id="SVGRepo_bgCarrier" stroke-width="0"/>
<g id="SVGRepo_tracerCarrier" stroke-linecap="round" stroke-linejoin="round"/>
<g id="SVGRepo_iconCarrier"> <g> <g> <path d="M426.134,198.4c4.267,4.267,9.6,6.4,14.933,6.4s10.667-2.133,14.933-5.333c8.533-8.533,8.533-21.333,0-29.867 L322.667,36.267c-8.533-8.533-21.333-8.533-29.867,0L245.867,83.2l-32-34.133c-4.267-4.267-9.6-6.4-14.933-6.4H148.8V21.333 C148.8,9.6,139.2,0,127.467,0s-21.333,9.6-21.333,21.333v21.333h-44.8C49.6,42.667,40,52.267,40,64v417.067 C40,492.8,49.6,502.4,61.333,502.4H430.4c11.733,0,20.267-9.6,20.267-21.333v-176c0-6.4-2.133-10.667-5.333-14.933l-169.6-177.067 l32-32L426.134,198.4z M409.067,314.667V460.8h-326.4v-45.867H206.4c11.733,0,21.333-8.533,21.333-20.267V238.934 c0-11.733-9.6-21.333-21.333-21.333H82.667V85.334H190.4l39.467,41.6l1.067,1.067c0,0,0,0,1.067,1.067L409.067,314.667z M82.667,373.334V259.2h103.467v114.133H82.667z"/> </g> </g> </g>
</svg>